<svg viewBox="0 0 64 64" xmlns="http://www.w3.org/2000/svg">
  <path fill="white" stroke="black" stroke-width="1" d="M23.727,16.403v4.84v5.058v14.236c-1.268-0.777-2.754-1.233-4.35-1.233
    c-4.612,0-8.353,3.74-8.353,8.349c0,4.614,3.74,8.354,8.353,8.354c4.61,0,8.349-3.739,8.35-8.352h0V25.151l21.25-6.109V33.33
    c-1.268-0.777-2.754-1.233-4.35-1.233c-4.614,0-8.353,3.739-8.353,8.348c0,4.613,3.739,8.354,8.353,8.354
    c4.344,0,7.914-3.325,8.31-7.57h0.04V17.892v-3.586V7.993L23.727,16.403z"/>
</svg>
